<mxfile host="Electron" modified="2024-07-05T11:38:17.901Z" agent="Mozilla/5.0 (Macintosh; Intel Mac OS X 10_15_7) AppleWebKit/537.36 (KHTML, like Gecko) draw.io/22.0.2 Chrome/114.0.5735.289 Electron/25.8.4 Safari/537.36" etag="Oxkst1VjSp1AWkcrNcyO" version="22.0.2" type="device">
  <diagram name="Page-1" id="iwLXjrdfWmG6SxcWIOx7">
    <mxGraphModel dx="1368" dy="2090" grid="1" gridSize="10" guides="1" tooltips="1" connect="1" arrows="1" fold="1" page="1" pageScale="1" pageWidth="827" pageHeight="1169" math="0" shadow="0">
      <root>
        <mxCell id="0" />
        <mxCell id="1" parent="0" />
        <mxCell id="IW9ls_drUUGMd1ADgO8r-8" value="Targeted System" style="verticalAlign=top;align=left;spacingTop=8;spacingLeft=2;spacingRight=12;shape=cube;size=10;direction=south;fontStyle=4;html=1;whiteSpace=wrap;" vertex="1" parent="1">
          <mxGeometry x="50" y="80" width="730" height="310" as="geometry" />
        </mxCell>
        <mxCell id="IW9ls_drUUGMd1ADgO8r-2" value="&lt;font style=&quot;font-size: 13px;&quot;&gt;&lt;b&gt;VPS :&lt;br&gt;The deployment server&lt;/b&gt;&lt;/font&gt;" style="shape=module;align=left;spacingLeft=20;align=center;verticalAlign=middle;whiteSpace=wrap;html=1;" vertex="1" parent="1">
          <mxGeometry x="515" y="130" width="210" height="80" as="geometry" />
        </mxCell>
        <mxCell id="IW9ls_drUUGMd1ADgO8r-9" value="" style="edgeStyle=orthogonalEdgeStyle;rounded=0;orthogonalLoop=1;jettySize=auto;html=1;" edge="1" parent="1" source="IW9ls_drUUGMd1ADgO8r-4" target="IW9ls_drUUGMd1ADgO8r-5">
          <mxGeometry relative="1" as="geometry">
            <Array as="points">
              <mxPoint x="110" y="240" />
              <mxPoint x="110" y="240" />
            </Array>
          </mxGeometry>
        </mxCell>
        <mxCell id="IW9ls_drUUGMd1ADgO8r-11" value="1. Sends a webhook" style="edgeLabel;html=1;align=center;verticalAlign=middle;resizable=0;points=[];" vertex="1" connectable="0" parent="IW9ls_drUUGMd1ADgO8r-9">
          <mxGeometry x="-0.0478" y="-4" relative="1" as="geometry">
            <mxPoint as="offset" />
          </mxGeometry>
        </mxCell>
        <mxCell id="IW9ls_drUUGMd1ADgO8r-4" value="&lt;font style=&quot;font-size: 13px;&quot;&gt;&lt;b&gt;GitHub :&lt;br&gt;The platform where the code is stored&lt;/b&gt;&lt;/font&gt;" style="shape=module;align=left;spacingLeft=20;align=center;verticalAlign=middle;whiteSpace=wrap;html=1;" vertex="1" parent="1">
          <mxGeometry x="90" y="130" width="160" height="80" as="geometry" />
        </mxCell>
        <mxCell id="IW9ls_drUUGMd1ADgO8r-12" value="" style="edgeStyle=orthogonalEdgeStyle;rounded=0;orthogonalLoop=1;jettySize=auto;html=1;" edge="1" parent="1" source="IW9ls_drUUGMd1ADgO8r-5" target="IW9ls_drUUGMd1ADgO8r-4">
          <mxGeometry relative="1" as="geometry">
            <Array as="points">
              <mxPoint x="240" y="260" />
              <mxPoint x="240" y="260" />
            </Array>
          </mxGeometry>
        </mxCell>
        <mxCell id="IW9ls_drUUGMd1ADgO8r-13" value="2. Checkout the code" style="edgeLabel;html=1;align=center;verticalAlign=middle;resizable=0;points=[];" vertex="1" connectable="0" parent="IW9ls_drUUGMd1ADgO8r-12">
          <mxGeometry x="-0.0205" relative="1" as="geometry">
            <mxPoint as="offset" />
          </mxGeometry>
        </mxCell>
        <mxCell id="IW9ls_drUUGMd1ADgO8r-14" value="" style="edgeStyle=orthogonalEdgeStyle;rounded=0;orthogonalLoop=1;jettySize=auto;html=1;" edge="1" parent="1" source="IW9ls_drUUGMd1ADgO8r-5" target="IW9ls_drUUGMd1ADgO8r-6">
          <mxGeometry relative="1" as="geometry">
            <Array as="points">
              <mxPoint x="350" y="290" />
              <mxPoint x="350" y="290" />
            </Array>
          </mxGeometry>
        </mxCell>
        <mxCell id="IW9ls_drUUGMd1ADgO8r-15" value="3. Sends all tasks to execute" style="edgeLabel;html=1;align=center;verticalAlign=middle;resizable=0;points=[];" vertex="1" connectable="0" parent="IW9ls_drUUGMd1ADgO8r-14">
          <mxGeometry x="-0.1983" y="-1" relative="1" as="geometry">
            <mxPoint x="18" as="offset" />
          </mxGeometry>
        </mxCell>
        <mxCell id="IW9ls_drUUGMd1ADgO8r-5" value="&lt;font style=&quot;font-size: 13px;&quot;&gt;&lt;b&gt;Controller :&lt;br&gt;The main node of the pipeline&lt;/b&gt;&lt;/font&gt;" style="shape=module;align=left;spacingLeft=20;align=center;verticalAlign=middle;whiteSpace=wrap;html=1;" vertex="1" parent="1">
          <mxGeometry x="180" y="280" width="160" height="80" as="geometry" />
        </mxCell>
        <mxCell id="IW9ls_drUUGMd1ADgO8r-19" value="" style="edgeStyle=orthogonalEdgeStyle;rounded=0;orthogonalLoop=1;jettySize=auto;html=1;" edge="1" parent="1" source="IW9ls_drUUGMd1ADgO8r-6" target="IW9ls_drUUGMd1ADgO8r-2">
          <mxGeometry relative="1" as="geometry" />
        </mxCell>
        <mxCell id="IW9ls_drUUGMd1ADgO8r-20" value="5. Sends code on the VPS &amp;amp; &lt;br&gt;instructions for the deployment" style="edgeLabel;html=1;align=center;verticalAlign=middle;resizable=0;points=[];" vertex="1" connectable="0" parent="IW9ls_drUUGMd1ADgO8r-19">
          <mxGeometry x="0.1872" y="1" relative="1" as="geometry">
            <mxPoint x="1" y="6" as="offset" />
          </mxGeometry>
        </mxCell>
        <mxCell id="IW9ls_drUUGMd1ADgO8r-6" value="&lt;font style=&quot;font-size: 13px;&quot;&gt;&lt;b&gt;Worker :&lt;br&gt;The agent where the tasks will be executed&lt;/b&gt;&lt;/font&gt;" style="shape=module;align=left;spacingLeft=20;align=center;verticalAlign=middle;whiteSpace=wrap;html=1;" vertex="1" parent="1">
          <mxGeometry x="520" y="270" width="200" height="80" as="geometry" />
        </mxCell>
        <mxCell id="IW9ls_drUUGMd1ADgO8r-21" style="edgeStyle=orthogonalEdgeStyle;rounded=0;orthogonalLoop=1;jettySize=auto;html=1;entryX=0.5;entryY=0;entryDx=0;entryDy=0;" edge="1" parent="1" source="IW9ls_drUUGMd1ADgO8r-7" target="IW9ls_drUUGMd1ADgO8r-2">
          <mxGeometry relative="1" as="geometry">
            <Array as="points">
              <mxPoint x="620" y="50" />
              <mxPoint x="620" y="50" />
            </Array>
          </mxGeometry>
        </mxCell>
        <mxCell id="IW9ls_drUUGMd1ADgO8r-22" value="6. Access the website over HTTP(s)" style="edgeLabel;html=1;align=center;verticalAlign=middle;resizable=0;points=[];" vertex="1" connectable="0" parent="IW9ls_drUUGMd1ADgO8r-21">
          <mxGeometry x="-0.5467" y="2" relative="1" as="geometry">
            <mxPoint as="offset" />
          </mxGeometry>
        </mxCell>
        <mxCell id="IW9ls_drUUGMd1ADgO8r-7" value="&lt;span style=&quot;font-size: 13px;&quot;&gt;&lt;b&gt;User : The final user&lt;/b&gt;&lt;/span&gt;" style="shape=module;align=left;spacingLeft=20;align=center;verticalAlign=middle;whiteSpace=wrap;html=1;" vertex="1" parent="1">
          <mxGeometry x="530" y="-50" width="160" height="80" as="geometry" />
        </mxCell>
        <mxCell id="IW9ls_drUUGMd1ADgO8r-16" value="" style="endArrow=classic;html=1;rounded=0;exitX=0.029;exitY=0.866;exitDx=0;exitDy=0;exitPerimeter=0;entryX=1;entryY=0.75;entryDx=0;entryDy=0;" edge="1" parent="1" source="IW9ls_drUUGMd1ADgO8r-6" target="IW9ls_drUUGMd1ADgO8r-5">
          <mxGeometry width="50" height="50" relative="1" as="geometry">
            <mxPoint x="383" y="350" as="sourcePoint" />
            <mxPoint x="413" y="310" as="targetPoint" />
          </mxGeometry>
        </mxCell>
        <mxCell id="IW9ls_drUUGMd1ADgO8r-17" value="Text" style="edgeLabel;html=1;align=center;verticalAlign=middle;resizable=0;points=[];" vertex="1" connectable="0" parent="IW9ls_drUUGMd1ADgO8r-16">
          <mxGeometry x="-0.0676" y="-3" relative="1" as="geometry">
            <mxPoint as="offset" />
          </mxGeometry>
        </mxCell>
        <mxCell id="IW9ls_drUUGMd1ADgO8r-18" value="4. Send updated states&amp;nbsp;" style="edgeLabel;html=1;align=center;verticalAlign=middle;resizable=0;points=[];" vertex="1" connectable="0" parent="IW9ls_drUUGMd1ADgO8r-16">
          <mxGeometry x="-0.0595" y="-1" relative="1" as="geometry">
            <mxPoint as="offset" />
          </mxGeometry>
        </mxCell>
      </root>
    </mxGraphModel>
  </diagram>
</mxfile>
